PathFileType	4	(X/Y/Z)	1_coords_data.trc
DataRate	CameraRate	NumFrames	NumMarkers	Units	OrigDataRate	OrigDataStartFrame	OrigNumFrames
30.0	30.0	6	21	m	30.0	11	51
Frame#	Time	THUMB_TIP	THUMB_IP	THUMB_MCP	THUMB_CMC	INDEX_TIP	INDEX_DIP	INDEX_PIP	INDEX_MCP	MIDDLE_TIP	MIDDLE_DIP	MIDDLE_PIP	MIDDLE_MCP	RING_TIP	RING_DIP	RING_PIP	RING_MCP	PINKY_TIP	PINKY_DIP	PINKY_PIP	PINKY_MCP	WRIST
X1	Y1	Z1	X2	Y2	Z2	X3	Y3	Z3	X4	Y4	Z4	X5	Y5	Z5	X6	Y6	Z6	X7	Y7	Z7	X8	Y8	Z8	X9	Y9	Z9	X10	Y10	Z10	X11	Y11	Z11	X12	Y12	Z12	X13	Y13	Z13	X14	Y14	Z14	X15	Y15	Z15	X16	Y16	Z16	X17	Y17	Z17	X18	Y18	Z18	X19	Y19	Z19	X20	Y20	Z20	X21	Y21	Z21
10	0.3333333333333333	-0.01795940017700195	-0.06515119934082031	0.948926025390625	-0.014349800109863281	-0.041768798828125	0.9589039916992188	-0.026769699096679686	-0.020177200317382814	0.971760986328125	-0.03419770050048828	0.01181309986114502	0.9852960205078125	0.010223099708557129	0.0006153489947319031	0.8524219970703125	0.005255849838256836	0.0019569000005722043	0.875010009765625	-0.000227647006511688	0.004197889804840088	0.8975029907226563	-0.010137900352478028	0.010287300109863281	0.9328419799804688	0.012752400398254395	0.03829520034790039	0.8421530151367187	0.00564468002319336	0.03727159881591797	0.8654099731445313	-0.001958999991416931	0.03533810043334961	0.8925830078125	-0.01108590030670166	0.03341939926147461	0.9295670166015625	0.019362199783325196	0.07387860107421874	0.86552001953125	0.01088129997253418	0.06898899841308594	0.8855490112304687	0.004313210010528565	0.06273860168457031	0.9079089965820313	-0.0062363801002502444	0.05262379837036133	0.9381630249023437	0.019212499618530273	0.11240599822998047	0.9178040161132812	0.011662500381469727	0.09923320007324218	0.9290349731445312	0.0053353700637817384	0.08719219970703125	0.9386859741210938	-0.005033740043640137	0.06811830139160156	0.9528510131835938	-0.05753670120239258	0.03975899887084961	0.9957340087890625
11	0.36666666666666664	-0.018092199325561522	-0.06521540069580078	0.9489229736328125	-0.014413200378417968	-0.04183840179443359	0.9589169921875	-0.02679520034790039	-0.020243499755859377	0.9718629760742188	-0.03410240173339844	0.011799599647521973	0.9854199829101562	0.009718299865722656	0.00048735898733139006	0.8523309936523438	0.004902190208435059	0.0018309799432754512	0.87497900390625	-0.000508238971233367	0.004036379814147949	0.8974639892578125	-0.01029520034790039	0.01010449981689453	0.9327620239257812	0.0124197998046875	0.03811370086669922	0.8421069946289063	0.005362720012664795	0.03704740142822266	0.8653259887695313	-0.0021861400604248037	0.035166698455810545	0.8925809936523438	-0.011050600051879883	0.033207199096679685	0.9294860229492188	0.01913089942932129	0.07341490173339844	0.865322998046875	0.010719900131225585	0.06866799926757812	0.8853699951171875	0.004175189971923828	0.06251610183715821	0.9078289794921875	-0.006309030055999756	0.05247669982910156	0.938177978515625	0.0190531005859375	0.11214800262451172	0.917281005859375	0.011520199775695801	0.09902320098876953	0.9286240234375	0.00512332010269165	0.08699559783935547	0.9383800048828125	-0.005147769927978516	0.06804879760742187	0.9527319946289062	-0.057490798950195314	0.03981570053100586	0.9958140258789062
12	0.4	-0.01831529998779297	-0.065268798828125	0.948875	-0.014582599639892578	-0.041839599609375	0.9587639770507812	-0.026926599502563476	-0.02027199935913086	0.9717150268554687	-0.03431389999389649	0.011707300186157227	0.9853489990234375	0.009311790466308595	0.000535880029201507	0.852177001953125	0.004662789821624756	0.0018336499929428101	0.8747990112304688	-0.0006606370210647581	0.004029310226440429	0.8973510131835938	-0.010479299545288086	0.010087699890136718	0.9326790161132813	0.012002400398254395	0.038214401245117186	0.8417429809570313	0.00501044988632202	0.037090900421142575	0.8651489868164063	-0.002440749883651733	0.03517570114135742	0.89247900390625	-0.011392499923706055	0.033192501068115235	0.9295070190429687	0.018836999893188478	0.07353910064697265	0.8652340087890625	0.010432299613952636	0.06870099639892578	0.8852890014648438	0.003920429944992065	0.062491298675537106	0.9077650146484375	-0.006556709766387939	0.0524203987121582	0.9380260009765625	0.01880780029296875	0.11217099761962891	0.9173140258789062	0.011280599594116212	0.09904340362548827	0.9285999755859375	0.004883959770202637	0.08695379638671875	0.9382890014648437	-0.005418179988861084	0.06798799896240235	0.9525989990234375	-0.057555301666259766	0.03978039932250976	0.9957440185546875
13	0.43333333333333335	-0.018573699951171876	-0.06527749633789062	0.9486320190429688	-0.014837100028991699	-0.041967899322509765	0.9586079711914063	-0.027232099533081054	-0.02038319969177246	0.9715440063476563	-0.03456129837036133	0.011580499649047851	0.98522998046875	0.00929496955871582	0.000693938970565795	0.8521170043945312	0.0046286401748657224	0.001870290040969848	0.8747769775390625	-0.0007185879945755	0.004019100189208985	0.8973070068359374	-0.010613400459289551	0.010077400207519531	0.9326199951171875	0.011555500030517578	0.038492000579833985	0.84172998046875	0.004859869956970215	0.03720050048828125	0.865041015625	-0.002486150026321411	0.03518519973754883	0.892343017578125	-0.011440500259399414	0.03311090087890625	0.929333984375	0.018774799346923828	0.07372760009765625	0.8652750244140625	0.010319600105285645	0.06880609893798828	0.8852219848632813	0.003929790019989013	0.06250210189819336	0.9077310180664062	-0.006707379817962647	0.05234579849243164	0.9378829956054687	0.01865999984741211	0.11201300048828125	0.9170859985351563	0.011121000289916992	0.0989269027709961	0.9285499877929687	0.004762050151824951	0.0869541015625	0.938280029296875	-0.005626850128173828	0.06791069793701172	0.95252197265625	-0.05803810119628906	0.039566699981689456	0.9956329956054687
14	0.4666666666666667	-0.018958499908447266	-0.06545290374755859	0.9486920166015625	-0.015175399780273437	-0.04206769943237305	0.9585880126953125	-0.027482099533081054	-0.020438499450683593	0.9716209716796875	-0.034655399322509765	0.011530200004577636	0.9851669921875	0.007997980117797853	0.000277850985527038	0.8517030029296875	0.00354065990447998	0.00151882004737854	0.8743699951171875	-0.001601879954338073	0.003710890054702759	0.8970549926757813	-0.011224699974060058	0.00988638973236084	0.932468017578125	0.010079600334167481	0.038102500915527346	0.8411519775390625	0.003587899923324585	0.036890998840332034	0.8646680297851562	-0.0034983999729156488	0.03488370132446289	0.8920579833984374	-0.012076899528503418	0.03287789916992188	0.9290609741210938	0.01760530090332031	0.07343710327148438	0.86464501953125	0.009369210243225097	0.06854820251464844	0.8847990112304688	0.003083169937133789	0.06232429885864258	0.9072789916992188	-0.007304769992828369	0.0521870002746582	0.9375369873046875	0.01769379997253418	0.11170700073242187	0.9160780029296876	0.010315199851989747	0.0986636962890625	0.9276209716796875	0.0040376300811767575	0.08667739868164062	0.937531982421875	-0.005960299968719483	0.06777529907226562	0.9521500244140625	-0.05800960159301758	0.03949810028076172	0.9955989990234375
15	0.5	-0.01949169921875	-0.06567019653320312	0.9485759887695312	-0.01566510009765625	-0.042272300720214845	0.9584979858398438	-0.027997900009155273	-0.020625499725341796	0.9714910278320312	-0.03516299819946289	0.011374600410461426	0.9852219848632813	0.008141209602355957	0.000349128991365432	0.8517880249023437	0.003544810056686401	0.0015275599956512452	0.8744199829101562	-0.001767580032348632	0.003633049964904785	0.896989013671875	-0.011588500022888184	0.009759599685668946	0.9324559936523438	0.010040300369262695	0.03861090087890625	0.841218994140625	0.003558259963989258	0.037243698120117186	0.864760009765625	-0.003569149971008301	0.03504059982299805	0.8921160278320313	-0.012335000038146972	0.03282440185546875	0.9291300048828125	0.017543699264526365	0.07389510345458984	0.8650189819335937	0.009325130462646485	0.06881439971923828	0.8850330200195312	0.002977979898452759	0.06239170074462891	0.9074970092773438	-0.007563210010528564	0.05210300064086914	0.9376119995117187	0.017425600051879882	0.11179100036621094	0.9166619873046875	0.01007509994506836	0.09864900207519531	0.928052978515625	0.003891050100326538	0.08653250122070312	0.937822998046875	-0.0063874502182006835	0.06757859802246094	0.9523200073242187	-0.05843199920654297	0.03933340072631836	0.995697998046875
